<svg width="479" height="187" viewBox="0 0 479 187" fill="none" xmlns="http://www.w3.org/2000/svg">
<path d="M144.786 123.54L154.586 109.05L156.686 109.75V127.95L152.906 126.69H112.096V123.54L147.166 74.8204H125.186L116.366 87.9104L114.266 87.2104V70.4104L118.046 71.6704H157.386V74.8204L122.316 123.54H144.786Z" fill="white"/>
<path d="M144.786 123.54V124.04H145.052L145.2 123.821L144.786 123.54ZM154.586 109.05L154.744 108.576L154.384 108.456L154.172 108.77L154.586 109.05ZM156.686 109.75H157.186V109.39L156.844 109.276L156.686 109.75ZM156.686 127.95L156.528 128.425L157.186 128.644V127.95H156.686ZM152.906 126.69L153.064 126.216L152.987 126.19H152.906V126.69ZM112.096 126.69H111.596V127.19H112.096V126.69ZM112.096 123.54L111.69 123.248L111.596 123.379V123.54H112.096ZM147.166 74.8204L147.572 75.1125L148.142 74.3204H147.166V74.8204ZM125.186 74.8204V74.3204H124.92L124.771 74.541L125.186 74.8204ZM116.366 87.9104L116.208 88.3848L116.568 88.5049L116.781 88.1898L116.366 87.9104ZM114.266 87.2104H113.766V87.5708L114.108 87.6848L114.266 87.2104ZM114.266 70.4104L114.424 69.9361L113.766 69.7167V70.4104H114.266ZM118.046 71.6704L117.888 72.1448L117.965 72.1704H118.046V71.6704ZM157.386 71.6704H157.886V71.1704H157.386V71.6704ZM157.386 74.8204L157.792 75.1125L157.886 74.9817V74.8204H157.386ZM122.316 123.54L121.91 123.248L121.34 124.04H122.316V123.54ZM145.2 123.821L155 109.331L154.172 108.77L144.372 123.26L145.2 123.821ZM154.428 109.525L156.528 110.225L156.844 109.276L154.744 108.576L154.428 109.525ZM156.186 109.75V127.95H157.186V109.75H156.186ZM156.844 127.476L153.064 126.216L152.748 127.165L156.528 128.425L156.844 127.476ZM152.906 126.19H112.096V127.19H152.906V126.19ZM112.596 126.69V123.54H111.596V126.69H112.596ZM112.502 123.833L147.572 75.1125L146.76 74.5283L111.69 123.248L112.502 123.833ZM147.166 74.3204H125.186V75.3204H147.166V74.3204ZM124.771 74.541L115.951 87.631L116.781 88.1898L125.601 75.0998L124.771 74.541ZM116.524 87.4361L114.424 86.7361L114.108 87.6848L116.208 88.3848L116.524 87.4361ZM114.766 87.2104V70.4104H113.766V87.2104H114.766ZM114.108 70.8848L117.888 72.1448L118.204 71.1961L114.424 69.9361L114.108 70.8848ZM118.046 72.1704H157.386V71.1704H118.046V72.1704ZM156.886 71.6704V74.8204H157.886V71.6704H156.886ZM156.98 74.5283L121.91 123.248L122.722 123.833L157.792 75.1125L156.98 74.5283ZM122.316 124.04H144.786V123.04H122.316V124.04Z" fill="white"/>
<path d="M98.8857 31.6902L4.76221 178" stroke="white" stroke-width="10"/>
<path d="M93.787 33.8568L168.266 45.6904" stroke="white" stroke-width="10"/>
<path d="M164.386 46.6895L222.886 4.1903" stroke="white" stroke-width="10"/>
<path d="M219.386 5.19043L304.886 12.1904" stroke="white" stroke-width="10"/>
<path d="M301.765 10.691L396.386 104.19" stroke="white" stroke-width="10"/>
<path d="M407.887 91.1904L389.887 103.69" stroke="white" stroke-width="10"/>
<path d="M401.386 89.6904L471.762 177.5" stroke="white" stroke-width="10"/>
<path d="M168.766 81.1904C167.866 81.1904 167.116 80.8404 166.516 80.1404C165.949 79.4404 165.666 78.5738 165.666 77.5404C165.666 76.8071 165.866 76.1238 166.266 75.4904C166.699 74.8571 167.233 74.3571 167.866 73.9904C168.499 73.5904 169.116 73.3904 169.716 73.3904C170.616 73.3904 171.349 73.7404 171.916 74.4404C172.516 75.1404 172.816 76.0071 172.816 77.0404C172.816 77.7738 172.599 78.4571 172.166 79.0904C171.766 79.7238 171.249 80.2404 170.616 80.6404C169.983 81.0071 169.366 81.1904 168.766 81.1904ZM182.266 81.1904C181.366 81.1904 180.616 80.8404 180.016 80.1404C179.449 79.4404 179.166 78.5738 179.166 77.5404C179.166 76.8071 179.366 76.1238 179.766 75.4904C180.199 74.8571 180.733 74.3571 181.366 73.9904C181.999 73.5904 182.616 73.3904 183.216 73.3904C184.116 73.3904 184.849 73.7404 185.416 74.4404C186.016 75.1404 186.316 76.0071 186.316 77.0404C186.316 77.7738 186.099 78.4571 185.666 79.0904C185.266 79.7238 184.749 80.2404 184.116 80.6404C183.483 81.0071 182.866 81.1904 182.266 81.1904ZM190.466 115.69H180.966V110.49L174.616 115.79C173.916 116.057 172.999 116.19 171.866 116.19C169.599 116.19 167.799 115.507 166.466 114.14C165.133 112.74 164.466 110.857 164.466 108.49V96.5404L160.016 93.9404V92.3904L168.566 88.1904H170.466V105.99C170.466 107.824 170.749 109.107 171.316 109.84C171.883 110.574 172.899 110.94 174.366 110.94C175.399 110.94 176.416 110.757 177.416 110.39C178.416 109.99 179.599 109.224 180.966 108.09V96.5404L176.516 93.9404V92.3904L185.066 88.1904H186.966V111.94L191.466 113.69L190.466 115.69ZM212.527 88.6904C213.627 88.6904 214.594 88.9904 215.427 89.5904C216.26 90.1904 216.91 91.0238 217.377 92.0904L214.077 96.2404H212.177C212.044 95.4071 211.794 94.8238 211.427 94.4904C211.094 94.1238 210.627 93.9404 210.027 93.9404C209.294 93.9404 208.51 94.1404 207.677 94.5404C206.877 94.9071 205.96 95.6238 204.927 96.6904V111.59L211.927 113.74L210.927 115.74H194.477V114.19L198.927 110.69V96.5404L194.477 93.9404V92.3904L203.027 88.1904L204.577 94.3404L209.777 89.0404C210.477 88.7738 211.394 88.6404 212.527 88.6404V88.6904ZM232.855 115.69H218.905V114.14L223.355 110.64V96.0404L218.905 92.9404V91.3904L227.455 88.1904H229.355V111.94L233.855 113.69L232.855 115.69ZM226.155 73.1904C227.155 73.1904 227.971 73.5571 228.605 74.2904C229.271 75.0238 229.605 75.9404 229.605 77.0404C229.605 77.8071 229.371 78.5404 228.905 79.2404C228.438 79.9071 227.855 80.4404 227.155 80.8404C226.455 81.2404 225.771 81.4404 225.105 81.4404C224.105 81.4404 223.271 81.0738 222.605 80.3404C221.971 79.6071 221.655 78.6904 221.655 77.5904C221.655 76.8238 221.888 76.1071 222.355 75.4404C222.821 74.7404 223.405 74.1904 224.105 73.7904C224.805 73.3904 225.488 73.1904 226.155 73.1904ZM251.638 88.6404C253.005 88.6404 254.588 88.8404 256.388 89.2404C258.222 89.6071 259.538 90.0238 260.338 90.4904V98.1904H258.438C257.138 96.5238 255.638 95.2238 253.938 94.2904C252.272 93.3238 250.538 92.8404 248.738 92.8404C247.205 92.8404 246.038 93.5238 245.238 94.8904C244.472 96.2571 244.088 98.2571 244.088 100.89C244.088 104.024 244.772 106.657 246.138 108.79C247.505 110.89 249.455 111.94 251.988 111.94C253.888 111.94 256.588 110.574 260.088 107.84L261.588 109.74L253.888 115.79C252.555 116.057 250.955 116.19 249.088 116.19C246.888 116.19 244.905 115.624 243.138 114.49C241.405 113.324 240.038 111.757 239.038 109.79C238.072 107.824 237.588 105.657 237.588 103.29C237.588 100.724 238.305 98.3071 239.738 96.0404C241.205 93.7738 243.038 91.9738 245.238 90.6404C247.438 89.3071 249.572 88.6404 251.638 88.6404ZM281.802 88.6404C284.002 88.6404 285.969 89.2238 287.702 90.3904C289.469 91.5238 290.836 93.0738 291.802 95.0404C292.802 97.0071 293.302 99.1738 293.302 101.54C293.302 104.107 292.519 106.524 290.952 108.79C289.386 111.024 287.419 112.824 285.052 114.19C282.719 115.524 280.452 116.19 278.252 116.19C276.052 116.19 274.069 115.624 272.302 114.49C270.569 113.324 269.202 111.757 268.202 109.79C267.236 107.824 266.752 105.657 266.752 103.29C266.752 100.724 267.536 98.3238 269.102 96.0904C270.669 93.8238 272.619 92.0238 274.952 90.6904C277.319 89.3238 279.602 88.6404 281.802 88.6404ZM278.902 92.8404C275.136 92.8404 273.252 95.5238 273.252 100.89C273.252 104.057 273.936 106.707 275.302 108.84C276.669 110.94 278.619 111.99 281.152 111.99C284.919 111.99 286.802 109.29 286.802 103.89C286.802 100.757 286.119 98.1404 284.752 96.0404C283.386 93.9071 281.436 92.8404 278.902 92.8404ZM328.997 115.74H319.497V98.8904C319.497 97.0571 319.214 95.7738 318.647 95.0404C318.081 94.3071 317.064 93.9404 315.597 93.9404C314.497 93.9404 313.397 94.1404 312.297 94.5404C311.231 94.9404 309.964 95.7071 308.497 96.8404V111.99L312.997 113.74L311.997 115.74H298.047V114.19L302.497 110.69V96.5404L298.047 93.9404V92.3904L306.597 88.1904L308.247 94.6904L315.347 89.0404C316.047 88.7738 316.964 88.6404 318.097 88.6404C320.364 88.6404 322.164 89.3404 323.497 90.7404C324.831 92.1071 325.497 93.9738 325.497 96.3404V111.94L329.997 113.74L328.997 115.74Z" fill="white"/>
<path d="M166.516 80.1404L166.127 80.4552L166.136 80.4658L166.516 80.1404ZM166.266 75.4904L165.853 75.2081L165.848 75.2157L165.843 75.2234L166.266 75.4904ZM167.866 73.9904L168.117 74.4231L168.125 74.4183L168.133 74.4132L167.866 73.9904ZM171.916 74.4404L171.527 74.7552L171.536 74.7658L171.916 74.4404ZM172.166 79.0904L171.753 78.8081L171.748 78.8157L171.743 78.8234L172.166 79.0904ZM170.616 80.6404L170.867 81.0731L170.875 81.0683L170.883 81.0632L170.616 80.6404ZM180.016 80.1404L179.627 80.4552L179.636 80.4658L180.016 80.1404ZM179.766 75.4904L179.353 75.2081L179.348 75.2157L179.343 75.2234L179.766 75.4904ZM181.366 73.9904L181.617 74.4231L181.625 74.4183L181.633 74.4132L181.366 73.9904ZM185.416 74.4404L185.027 74.7552L185.036 74.7658L185.416 74.4404ZM185.666 79.0904L185.253 78.8081L185.248 78.8157L185.243 78.8234L185.666 79.0904ZM184.116 80.6404L184.367 81.0731L184.375 81.0683L184.383 81.0632L184.116 80.6404ZM190.466 115.69V116.19H190.775L190.913 115.914L190.466 115.69ZM180.966 115.69H180.466V116.19H180.966V115.69ZM180.966 110.49H181.466V109.422L180.646 110.107L180.966 110.49ZM174.616 115.79L174.794 116.258L174.872 116.228L174.937 116.174L174.616 115.79ZM166.466 114.14L166.104 114.485L166.108 114.49L166.466 114.14ZM164.466 96.5404H164.966V96.2535L164.718 96.1087L164.466 96.5404ZM160.016 93.9404H159.516V94.2274L159.764 94.3721L160.016 93.9404ZM160.016 92.3904L159.796 91.9417L159.516 92.079V92.3904H160.016ZM168.566 88.1904V87.6904H168.45L168.346 87.7417L168.566 88.1904ZM170.466 88.1904H170.966V87.6904H170.466V88.1904ZM171.316 109.84L170.92 110.146L171.316 109.84ZM177.416 110.39L177.588 110.86L177.595 110.857L177.602 110.855L177.416 110.39ZM180.966 108.09L181.285 108.475L181.466 108.325V108.09H180.966ZM180.966 96.5404H181.466V96.2535L181.218 96.1087L180.966 96.5404ZM176.516 93.9404H176.016V94.2274L176.264 94.3721L176.516 93.9404ZM176.516 92.3904L176.296 91.9417L176.016 92.079V92.3904H176.516ZM185.066 88.1904V87.6904H184.95L184.846 87.7417L185.066 88.1904ZM186.966 88.1904H187.466V87.6904H186.966V88.1904ZM186.966 111.94H186.466V112.282L186.785 112.406L186.966 111.94ZM191.466 113.69L191.913 113.914L192.159 113.423L191.647 113.224L191.466 113.69ZM168.766 80.6904C168.016 80.6904 167.403 80.4073 166.896 79.815L166.136 80.4658C166.829 81.2735 167.716 81.6904 168.766 81.6904V80.6904ZM166.905 79.8258C166.421 79.2277 166.166 78.477 166.166 77.5404H165.166C165.166 78.6705 165.478 79.6531 166.127 80.455L166.905 79.8258ZM166.166 77.5404C166.166 76.9037 166.338 76.3127 166.689 75.7574L165.843 75.2234C165.394 75.9349 165.166 76.7105 165.166 77.5404H166.166ZM166.679 75.7728C167.072 75.198 167.551 74.7506 168.117 74.4231L167.616 73.5577C166.915 73.9636 166.327 74.5162 165.853 75.2081L166.679 75.7728ZM168.133 74.4132C168.706 74.0511 169.232 73.8904 169.716 73.8904V72.8904C169.001 72.8904 168.293 73.1297 167.599 73.5677L168.133 74.4132ZM169.716 73.8904C170.465 73.8904 171.056 74.1722 171.527 74.755L172.305 74.1258C171.643 73.3087 170.767 72.8904 169.716 72.8904V73.8904ZM171.536 74.7658C172.049 75.3642 172.316 76.111 172.316 77.0404H173.316C173.316 75.9031 172.983 74.9167 172.296 74.115L171.536 74.7658ZM172.316 77.0404C172.316 77.6682 172.133 78.2538 171.753 78.8081L172.579 79.3728C173.066 78.6604 173.316 77.8794 173.316 77.0404H172.316ZM171.743 78.8234C171.383 79.3939 170.92 79.8574 170.349 80.2177L170.883 81.0632C171.579 80.6235 172.149 80.0536 172.589 79.3574L171.743 78.8234ZM170.366 80.2077C169.792 80.5399 169.261 80.6904 168.766 80.6904V81.6904C169.472 81.6904 170.174 81.4742 170.867 81.0731L170.366 80.2077ZM182.266 80.6904C181.516 80.6904 180.903 80.4073 180.396 79.815L179.636 80.4658C180.329 81.2735 181.216 81.6904 182.266 81.6904V80.6904ZM180.405 79.8258C179.921 79.2277 179.666 78.477 179.666 77.5404H178.666C178.666 78.6705 178.978 79.6531 179.627 80.455L180.405 79.8258ZM179.666 77.5404C179.666 76.9037 179.838 76.3127 180.189 75.7574L179.343 75.2234C178.894 75.9349 178.666 76.7105 178.666 77.5404H179.666ZM180.179 75.7728C180.572 75.198 181.051 74.7506 181.617 74.4231L181.116 73.5577C180.415 73.9636 179.827 74.5162 179.353 75.2081L180.179 75.7728ZM181.633 74.4132C182.206 74.0511 182.732 73.8904 183.216 73.8904V72.8904C182.501 72.8904 181.793 73.1297 181.099 73.5677L181.633 74.4132ZM183.216 73.8904C183.965 73.8904 184.556 74.1722 185.027 74.755L185.805 74.1258C185.143 73.3087 184.267 72.8904 183.216 72.8904V73.8904ZM185.036 74.7658C185.549 75.3642 185.816 76.111 185.816 77.0404H186.816C186.816 75.9031 186.483 74.9167 185.796 74.115L185.036 74.7658ZM185.816 77.0404C185.816 77.6682 185.633 78.2538 185.253 78.8081L186.079 79.3728C186.566 78.6604 186.816 77.8794 186.816 77.0404H185.816ZM185.243 78.8234C184.883 79.3939 184.42 79.8574 183.849 80.2177L184.383 81.0632C185.079 80.6235 185.649 80.0536 186.089 79.3574L185.243 78.8234ZM183.866 80.2077C183.292 80.5399 182.761 80.6904 182.266 80.6904V81.6904C182.972 81.6904 183.674 81.4742 184.367 81.0731L183.866 80.2077ZM190.466 115.19H180.966V116.19H190.466V115.19ZM181.466 115.69V110.49H180.466V115.69H181.466ZM180.646 110.107L174.296 115.407L174.937 116.174L181.287 110.874L180.646 110.107ZM174.438 115.323C173.816 115.56 172.967 115.69 171.866 115.69V116.69C173.032 116.69 174.016 116.554 174.794 116.258L174.438 115.323ZM171.866 115.69C169.707 115.69 168.046 115.044 166.824 113.791L166.108 114.49C167.553 115.971 169.492 116.69 171.866 116.69V115.69ZM166.828 113.796C165.602 112.508 164.966 110.759 164.966 108.49H163.966C163.966 110.955 164.663 112.972 166.104 114.485L166.828 113.796ZM164.966 108.49V96.5404H163.966V108.49H164.966ZM164.718 96.1087L160.268 93.5087L159.764 94.3721L164.214 96.9721L164.718 96.1087ZM160.516 93.9404V92.3904H159.516V93.9404H160.516ZM160.237 92.8392L168.787 88.6392L168.346 87.7417L159.796 91.9417L160.237 92.8392ZM168.566 88.6904H170.466V87.6904H168.566V88.6904ZM169.966 88.1904V105.99H170.966V88.1904H169.966ZM169.966 105.99C169.966 107.843 170.246 109.273 170.92 110.146L171.712 109.535C171.253 108.941 170.966 107.804 170.966 105.99H169.966ZM170.92 110.146C171.626 111.059 172.836 111.44 174.366 111.44V110.44C172.963 110.44 172.139 110.088 171.712 109.535L170.92 110.146ZM174.366 111.44C175.46 111.44 176.535 111.246 177.588 110.86L177.244 109.921C176.297 110.268 175.339 110.44 174.366 110.44V111.44ZM177.602 110.855C178.671 110.427 179.901 109.623 181.285 108.475L180.647 107.706C179.298 108.824 178.161 109.554 177.23 109.926L177.602 110.855ZM181.466 108.09V96.5404H180.466V108.09H181.466ZM181.218 96.1087L176.768 93.5087L176.264 94.3721L180.714 96.9721L181.218 96.1087ZM177.016 93.9404V92.3904H176.016V93.9404H177.016ZM176.737 92.8392L185.287 88.6392L184.846 87.7417L176.296 91.9417L176.737 92.8392ZM185.066 88.6904H186.966V87.6904H185.066V88.6904ZM186.466 88.1904V111.94H187.466V88.1904H186.466ZM186.785 112.406L191.285 114.156L191.647 113.224L187.147 111.474L186.785 112.406ZM191.019 113.467L190.019 115.467L190.913 115.914L191.913 113.914L191.019 113.467ZM212.527 88.6904H212.027V89.1904H212.527V88.6904ZM215.427 89.5904L215.719 89.1847L215.427 89.5904ZM217.377 92.0904L217.768 92.4016L217.956 92.1659L217.835 91.89L217.377 92.0904ZM214.077 96.2404V96.7404H214.318L214.468 96.5516L214.077 96.2404ZM212.177 96.2404L211.683 96.3194L211.751 96.7404H212.177V96.2404ZM211.427 94.4904L211.057 94.8268L211.073 94.8444L211.091 94.8604L211.427 94.4904ZM207.677 94.5404L207.885 94.995L207.893 94.9912L207.677 94.5404ZM204.927 96.6904L204.568 96.3425L204.427 96.488V96.6904H204.927ZM204.927 111.59H204.427V111.96L204.78 112.068L204.927 111.59ZM211.927 113.74L212.374 113.964L212.638 113.436L212.074 113.262L211.927 113.74ZM210.927 115.74V116.24H211.236L211.374 115.964L210.927 115.74ZM194.477 115.74H193.977V116.24H194.477V115.74ZM194.477 114.19L194.168 113.797L193.977 113.948V114.19H194.477ZM198.927 110.69L199.236 111.083L199.427 110.933V110.69H198.927ZM198.927 96.5404H199.427V96.2535L199.179 96.1087L198.927 96.5404ZM194.477 93.9404H193.977V94.2274L194.225 94.3721L194.477 93.9404ZM194.477 92.3904L194.257 91.9417L193.977 92.079V92.3904H194.477ZM203.027 88.1904L203.512 88.0682L203.361 87.4693L202.807 87.7417L203.027 88.1904ZM204.577 94.3404L204.092 94.4626L204.31 95.3266L204.934 94.6906L204.577 94.3404ZM209.777 89.0404L209.599 88.5732L209.497 88.6121L209.42 88.6903L209.777 89.0404ZM212.527 88.6404H213.027V88.1404H212.527V88.6404ZM212.527 89.1904C213.53 89.1904 214.393 89.4619 215.135 89.9962L215.719 89.1847C214.795 88.5189 213.724 88.1904 212.527 88.1904V89.1904ZM215.135 89.9962C215.886 90.5371 216.483 91.295 216.919 92.2908L217.835 91.89C217.337 90.7525 216.635 89.8437 215.719 89.1847L215.135 89.9962ZM216.986 91.7792L213.686 95.9292L214.468 96.5516L217.768 92.4016L216.986 91.7792ZM214.077 95.7404H212.177V96.7404H214.077V95.7404ZM212.671 96.1614C212.531 95.2876 212.255 94.5677 211.763 94.1205L211.091 94.8604C211.332 95.0799 211.556 95.5266 211.683 96.3194L212.671 96.1614ZM211.797 94.1541C211.349 93.6615 210.736 93.4404 210.027 93.4404V94.4404C210.518 94.4404 210.838 94.586 211.057 94.8268L211.797 94.1541ZM210.027 93.4404C209.202 93.4404 208.344 93.6655 207.461 94.0897L207.893 94.9912C208.676 94.6154 209.386 94.4404 210.027 94.4404V93.4404ZM207.469 94.0859C206.586 94.4903 205.619 95.2577 204.568 96.3425L205.286 97.0383C206.302 95.9899 207.168 95.3239 207.885 94.995L207.469 94.0859ZM204.427 96.6904V111.59H205.427V96.6904H204.427ZM204.78 112.068L211.78 114.218L212.074 113.262L205.074 111.112L204.78 112.068ZM211.48 113.517L210.48 115.517L211.374 115.964L212.374 113.964L211.48 113.517ZM210.927 115.24H194.477V116.24H210.927V115.24ZM194.977 115.74V114.19H193.977V115.74H194.977ZM194.786 114.583L199.236 111.083L198.618 110.297L194.168 113.797L194.786 114.583ZM199.427 110.69V96.5404H198.427V110.69H199.427ZM199.179 96.1087L194.729 93.5087L194.225 94.3721L198.675 96.9721L199.179 96.1087ZM194.977 93.9404V92.3904H193.977V93.9404H194.977ZM194.698 92.8392L203.248 88.6392L202.807 87.7417L194.257 91.9417L194.698 92.8392ZM202.542 88.3126L204.092 94.4626L205.062 94.2182L203.512 88.0682L202.542 88.3126ZM204.934 94.6906L210.134 89.3906L209.42 88.6903L204.22 93.9903L204.934 94.6906ZM209.955 89.5077C210.577 89.2708 211.427 89.1404 212.527 89.1404V88.1404C211.361 88.1404 210.377 88.2767 209.599 88.5732L209.955 89.5077ZM212.027 88.6404V88.6904H213.027V88.6404H212.027ZM232.855 115.69V116.19H233.164L233.302 115.914L232.855 115.69ZM218.905 115.69H218.405V116.19H218.905V115.69ZM218.905 114.14L218.596 113.747L218.405 113.898V114.14H218.905ZM223.355 110.64L223.664 111.033L223.855 110.883V110.64H223.355ZM223.355 96.0404H223.855V95.7794L223.641 95.6302L223.355 96.0404ZM218.905 92.9404H218.405V93.2015L218.619 93.3507L218.905 92.9404ZM218.905 91.3904L218.73 90.9222L218.405 91.0437V91.3904H218.905ZM227.455 88.1904V87.6904H227.364L227.28 87.7222L227.455 88.1904ZM229.355 88.1904H229.855V87.6904H229.355V88.1904ZM229.355 111.94H228.855V112.282L229.174 112.406L229.355 111.94ZM233.855 113.69L234.302 113.914L234.547 113.423L234.036 113.224L233.855 113.69ZM228.605 74.2904L228.226 74.6173L228.235 74.6268L228.605 74.2904ZM228.905 79.2404L229.315 79.5272L229.321 79.5178L228.905 79.2404ZM227.155 80.8404L227.403 81.2746V81.2745L227.155 80.8404ZM222.605 80.3404L222.226 80.6673L222.235 80.6768L222.605 80.3404ZM222.355 75.4404L222.765 75.7272L222.771 75.7178L222.355 75.4404ZM224.105 73.7904L223.857 73.3563L223.857 73.3563L224.105 73.7904ZM232.855 115.19H218.905V116.19H232.855V115.19ZM219.405 115.69V114.14H218.405V115.69H219.405ZM219.214 114.533L223.664 111.033L223.046 110.247L218.596 113.747L219.214 114.533ZM223.855 110.64V96.0404H222.855V110.64H223.855ZM223.641 95.6302L219.191 92.5302L218.619 93.3507L223.069 96.4507L223.641 95.6302ZM219.405 92.9404V91.3904H218.405V92.9404H219.405ZM219.08 91.8587L227.63 88.6587L227.28 87.7222L218.73 90.9222L219.08 91.8587ZM227.455 88.6904H229.355V87.6904H227.455V88.6904ZM228.855 88.1904V111.94H229.855V88.1904H228.855ZM229.174 112.406L233.674 114.156L234.036 113.224L229.536 111.474L229.174 112.406ZM233.408 113.467L232.408 115.467L233.302 115.914L234.302 113.914L233.408 113.467ZM226.155 73.6904C227.015 73.6904 227.691 73.9979 228.226 74.6172L228.983 73.9636C228.251 73.1163 227.295 72.6904 226.155 72.6904V73.6904ZM228.235 74.6268C228.808 75.2577 229.105 76.05 229.105 77.0404H230.105C230.105 75.8308 229.735 74.7898 228.975 73.9541L228.235 74.6268ZM229.105 77.0404C229.105 77.6988 228.906 78.3369 228.489 78.9631L229.321 79.5178C229.837 78.744 230.105 77.9154 230.105 77.0404H229.105ZM228.495 78.9537C228.07 79.5605 227.542 80.0433 226.907 80.4063L227.403 81.2745C228.168 80.8376 228.806 80.2537 229.314 79.5272L228.495 78.9537ZM226.907 80.4063C226.266 80.7722 225.668 80.9404 225.105 80.9404V81.9404C225.875 81.9404 226.643 81.7087 227.403 81.2746L226.907 80.4063ZM225.105 80.9404C224.244 80.9404 223.546 80.6321 222.975 80.0041L222.235 80.6768C222.997 81.5154 223.965 81.9404 225.105 81.9404V80.9404ZM222.983 80.0136C222.439 79.3834 222.155 78.5877 222.155 77.5904H221.155C221.155 78.7931 221.504 79.8308 222.226 80.6672L222.983 80.0136ZM222.155 77.5904C222.155 76.9328 222.353 76.3152 222.764 75.7272L221.945 75.1537C221.423 75.8989 221.155 76.7147 221.155 77.5904H222.155ZM222.771 75.7178C223.196 75.0795 223.723 74.5843 224.353 74.2245L223.857 73.3563C223.086 73.7965 222.447 74.4014 221.939 75.1631L222.771 75.7178ZM224.353 74.2245C224.993 73.8587 225.592 73.6904 226.155 73.6904V72.6904C225.385 72.6904 224.616 72.9222 223.857 73.3563L224.353 74.2245ZM256.388 89.2404L256.28 89.7286L256.29 89.7307L256.388 89.2404ZM260.338 90.4904H260.838V90.2032L260.59 90.0585L260.338 90.4904ZM260.338 98.1904V98.6904H260.838V98.1904H260.338ZM258.438 98.1904L258.044 98.4979L258.194 98.6904H258.438V98.1904ZM253.938 94.2904L253.687 94.7231L253.698 94.7287L253.938 94.2904ZM245.238 94.8904L244.807 94.6378L244.802 94.6458L245.238 94.8904ZM246.138 108.79L245.717 109.06L245.719 109.063L246.138 108.79ZM260.088 107.84L260.481 107.531L260.173 107.14L259.781 107.446L260.088 107.84ZM261.588 109.74L261.897 110.134L262.291 109.824L261.981 109.431L261.588 109.74ZM253.888 115.79L253.986 116.281L254.103 116.257L254.197 116.184L253.888 115.79ZM243.138 114.49L242.859 114.905L242.868 114.911L243.138 114.49ZM239.038 109.79L238.59 110.011L238.593 110.017L239.038 109.79ZM239.738 96.0404L239.319 95.7688L239.316 95.7732L239.738 96.0404ZM245.238 90.6404L244.979 90.2128L245.238 90.6404ZM251.638 89.1404C252.958 89.1404 254.504 89.3339 256.28 89.7285L256.497 88.7523C254.673 88.347 253.052 88.1404 251.638 88.1404V89.1404ZM256.29 89.7307C258.113 90.0953 259.361 90.4994 260.086 90.9223L260.59 90.0585C259.715 89.5481 258.33 89.1189 256.486 88.7501L256.29 89.7307ZM259.838 90.4904V98.1904H260.838V90.4904H259.838ZM260.338 97.6904H258.438V98.6904H260.338V97.6904ZM258.833 97.8829C257.495 96.1675 255.944 94.821 254.179 93.8521L253.698 94.7287C255.333 95.6265 256.782 96.88 258.044 98.4979L258.833 97.8829ZM254.189 93.8579C252.452 92.8503 250.633 92.3404 248.738 92.3404V93.3404C250.444 93.3404 252.092 93.7973 253.688 94.7229L254.189 93.8579ZM248.738 92.3404C247.02 92.3404 245.693 93.1241 244.807 94.6378L245.67 95.143C246.384 93.9234 247.39 93.3404 248.738 93.3404V92.3404ZM244.802 94.6458C243.974 96.1219 243.588 98.2228 243.588 100.89H244.588C244.588 98.2914 244.969 96.3923 245.674 95.1351L244.802 94.6458ZM243.588 100.89C243.588 104.097 244.288 106.829 245.717 109.06L246.559 108.521C245.255 106.485 244.588 103.951 244.588 100.89H243.588ZM245.719 109.063C247.179 111.307 249.288 112.44 251.988 112.44V111.44C249.622 111.44 247.831 110.474 246.557 108.518L245.719 109.063ZM251.988 112.44C253.05 112.44 254.281 112.062 255.664 111.362C257.053 110.658 258.631 109.613 260.396 108.234L259.781 107.446C258.046 108.801 256.524 109.806 255.213 110.469C253.895 111.136 252.827 111.44 251.988 111.44V112.44ZM259.696 108.15L261.196 110.05L261.981 109.431L260.481 107.531L259.696 108.15ZM261.279 109.347L253.579 115.397L254.197 116.184L261.897 110.134L261.279 109.347ZM253.79 115.3C252.499 115.558 250.933 115.69 249.088 115.69V116.69C250.977 116.69 252.611 116.556 253.986 116.281L253.79 115.3ZM249.088 115.69C246.979 115.69 245.09 115.149 243.408 114.07L242.868 114.911C244.72 116.099 246.798 116.69 249.088 116.69V115.69ZM243.418 114.076C241.759 112.959 240.448 111.459 239.484 109.564L238.593 110.017C239.629 112.055 241.051 113.688 242.859 114.905L243.418 114.076ZM239.487 109.57C238.557 107.677 238.088 105.587 238.088 103.29H237.088C237.088 105.727 237.587 107.97 238.59 110.011L239.487 109.57ZM238.088 103.29C238.088 100.823 238.776 98.4981 240.161 96.3077L239.316 95.7732C237.834 98.1161 237.088 100.625 237.088 103.29H238.088ZM240.158 96.3121C241.586 94.1056 243.365 92.3602 245.498 91.068L244.979 90.2128C242.711 91.5873 240.824 93.4419 239.319 95.7688L240.158 96.3121ZM245.498 91.068C247.638 89.7705 249.683 89.1404 251.638 89.1404V88.1404C249.46 88.1404 247.238 88.8437 244.979 90.2128L245.498 91.068ZM287.702 90.3904L287.423 90.8053L287.432 90.8113L287.702 90.3904ZM291.802 95.0404L291.354 95.261L291.357 95.2671L291.802 95.0404ZM290.952 108.79L291.362 109.078L291.364 109.075L290.952 108.79ZM285.052 114.19L285.301 114.625L285.302 114.623L285.052 114.19ZM272.302 114.49L272.023 114.905L272.032 114.911L272.302 114.49ZM268.202 109.79L267.754 110.011L267.757 110.017L268.202 109.79ZM269.102 96.0904L269.512 96.3776L269.514 96.3747L269.102 96.0904ZM274.952 90.6904L275.201 91.1246L275.202 91.1234L274.952 90.6904ZM275.302 108.84L274.881 109.11L274.883 109.113L275.302 108.84ZM284.752 96.0404L284.331 96.3102L284.333 96.3132L284.752 96.0404ZM281.802 89.1404C283.909 89.1404 285.777 89.6971 287.423 90.8052L287.982 89.9756C286.161 88.7504 284.096 88.1404 281.802 88.1404V89.1404ZM287.432 90.8113C289.119 91.8932 290.425 93.3724 291.354 95.261L292.251 94.8199C291.246 92.7752 289.819 91.1544 287.972 89.9696L287.432 90.8113ZM291.357 95.2671C292.318 97.1585 292.802 99.2467 292.802 101.54H293.802C293.802 99.1009 293.286 96.8557 292.248 94.8138L291.357 95.2671ZM292.802 101.54C292.802 103.998 292.055 106.317 290.541 108.506L291.364 109.075C292.984 106.731 293.802 104.216 293.802 101.54H292.802ZM290.543 108.503C289.018 110.677 287.106 112.427 284.802 113.757L285.302 114.623C287.732 113.22 289.753 111.371 291.362 109.078L290.543 108.503ZM284.804 113.756C282.53 115.056 280.348 115.69 278.252 115.69V116.69C280.557 116.69 282.908 115.992 285.301 114.625L284.804 113.756ZM278.252 115.69C276.143 115.69 274.255 115.149 272.572 114.07L272.032 114.911C273.884 116.099 275.962 116.69 278.252 116.69V115.69ZM272.582 114.076C270.923 112.959 269.612 111.459 268.648 109.564L267.757 110.017C268.793 112.055 270.215 113.688 272.023 114.905L272.582 114.076ZM268.651 109.57C267.721 107.677 267.252 105.587 267.252 103.29H266.252C266.252 105.727 266.751 107.97 267.754 110.011L268.651 109.57ZM267.252 103.29C267.252 100.833 268 98.5324 269.512 96.3776L268.693 95.8033C267.071 98.1152 266.252 100.614 266.252 103.29H267.252ZM269.514 96.3747C271.039 94.168 272.934 92.4198 275.201 91.1246L274.704 90.2563C272.304 91.6277 270.299 93.4796 268.691 95.8061L269.514 96.3747ZM275.202 91.1234C277.511 89.7901 279.709 89.1404 281.802 89.1404V88.1404C279.496 88.1404 277.127 88.8574 274.702 90.2574L275.202 91.1234ZM278.902 92.3404C276.884 92.3404 275.306 93.0693 274.256 94.5657C273.228 96.0298 272.752 98.1639 272.752 100.89H273.752C273.752 98.2503 274.218 96.3594 275.074 95.1402C275.907 93.9533 277.154 93.3404 278.902 93.3404V92.3404ZM272.752 100.89C272.752 104.129 273.452 106.878 274.881 109.11L275.723 108.571C274.42 106.536 273.752 103.985 273.752 100.89H272.752ZM274.883 109.113C276.344 111.357 278.452 112.49 281.152 112.49V111.49C278.786 111.49 276.995 110.524 275.722 108.568L274.883 109.113ZM281.152 112.49C283.172 112.49 284.75 111.756 285.8 110.251C286.827 108.779 287.302 106.633 287.302 103.89H286.302C286.302 106.548 285.836 108.452 284.98 109.679C284.146 110.874 282.9 111.49 281.152 111.49V112.49ZM287.302 103.89C287.302 100.685 286.603 97.967 285.172 95.7677L284.333 96.3132C285.635 98.3138 286.302 100.83 286.302 103.89H287.302ZM285.173 95.7707C283.715 93.4939 281.606 92.3404 278.902 92.3404V93.3404C281.265 93.3404 283.057 94.3203 284.331 96.3101L285.173 95.7707ZM328.997 115.74V116.24H329.306L329.445 115.964L328.997 115.74ZM319.497 115.74H318.997V116.24H319.497V115.74ZM318.647 95.0404L318.252 95.3462L318.647 95.0404ZM312.297 94.5404L312.126 94.0705L312.122 94.0723L312.297 94.5404ZM308.497 96.8404L308.192 96.4448L307.997 96.5949V96.8404H308.497ZM308.497 111.99H307.997V112.332L308.316 112.456L308.497 111.99ZM312.997 113.74L313.445 113.964L313.69 113.473L313.179 113.274L312.997 113.74ZM311.997 115.74V116.24H312.306L312.445 115.964L311.997 115.74ZM298.047 115.74H297.547V116.24H298.047V115.74ZM298.047 114.19L297.738 113.797L297.547 113.948V114.19H298.047ZM302.497 110.69L302.806 111.083L302.997 110.933V110.69H302.497ZM302.497 96.5404H302.997V96.2535L302.75 96.1087L302.497 96.5404ZM298.047 93.9404H297.547V94.2274L297.795 94.3721L298.047 93.9404ZM298.047 92.3904L297.827 91.9417L297.547 92.079V92.3904H298.047ZM306.597 88.1904L307.082 88.0674L306.93 87.4698L306.377 87.7417L306.597 88.1904ZM308.247 94.6904L307.763 94.8134L307.953 95.5636L308.559 95.0817L308.247 94.6904ZM315.347 89.0404L315.169 88.5732L315.097 88.6008L315.036 88.6492L315.347 89.0404ZM323.497 90.7404L323.135 91.0853L323.139 91.0896L323.497 90.7404ZM325.497 111.94H324.997V112.279L325.312 112.405L325.497 111.94ZM329.997 113.74L330.445 113.964L330.688 113.478L330.183 113.276L329.997 113.74ZM328.997 115.24H319.497V116.24H328.997V115.24ZM319.997 115.74V98.8904H318.997V115.74H319.997ZM319.997 98.8904C319.997 97.0378 319.717 95.6075 319.043 94.7347L318.252 95.3462C318.711 95.94 318.997 97.0764 318.997 98.8904H319.997ZM319.043 94.7347C318.337 93.8214 317.128 93.4404 315.597 93.4404V94.4404C317 94.4404 317.824 94.7928 318.252 95.3462L319.043 94.7347ZM315.597 93.4404C314.435 93.4404 313.278 93.6519 312.126 94.0705L312.468 95.0103C313.517 94.629 314.559 94.4404 315.597 94.4404V93.4404ZM312.122 94.0723C310.988 94.4973 309.676 95.2975 308.192 96.4448L308.803 97.2361C310.252 96.1167 311.473 95.3836 312.473 95.0086L312.122 94.0723ZM307.997 96.8404V111.99H308.997V96.8404H307.997ZM308.316 112.456L312.816 114.206L313.179 113.274L308.679 111.524L308.316 112.456ZM312.55 113.517L311.55 115.517L312.445 115.964L313.445 113.964L312.55 113.517ZM311.997 115.24H298.047V116.24H311.997V115.24ZM298.547 115.74V114.19H297.547V115.74H298.547ZM298.356 114.583L302.806 111.083L302.188 110.297L297.738 113.797L298.356 114.583ZM302.997 110.69V96.5404H301.997V110.69H302.997ZM302.75 96.1087L298.3 93.5087L297.795 94.3721L302.245 96.9721L302.75 96.1087ZM298.547 93.9404V92.3904H297.547V93.9404H298.547ZM298.268 92.8392L306.818 88.6392L306.377 87.7417L297.827 91.9417L298.268 92.8392ZM306.113 88.3134L307.763 94.8134L308.732 94.5674L307.082 88.0674L306.113 88.3134ZM308.559 95.0817L315.659 89.4317L315.036 88.6492L307.936 94.2992L308.559 95.0817ZM315.525 89.5077C316.147 89.2708 316.997 89.1404 318.097 89.1404V88.1404C316.931 88.1404 315.948 88.2767 315.169 88.5732L315.525 89.5077ZM318.097 89.1404C320.253 89.1404 321.913 89.8015 323.135 91.0853L323.859 90.3956C322.415 88.8794 320.475 88.1404 318.097 88.1404V89.1404ZM323.139 91.0896C324.361 92.3417 324.997 94.0713 324.997 96.3404H325.997C325.997 93.8763 325.3 91.8725 323.855 90.3913L323.139 91.0896ZM324.997 96.3404V111.94H325.997V96.3404H324.997ZM325.312 112.405L329.812 114.205L330.183 113.276L325.683 111.476L325.312 112.405ZM329.55 113.517L328.55 115.517L329.445 115.964L330.445 113.964L329.55 113.517Z" fill="white"/>
<path d="M224.746 133.69H231.186L239.376 163.86L247.356 133.69H253.586L243.506 168.69H234.896L224.746 133.69ZM273.259 168.69C272.652 168.69 271.976 168.504 271.229 168.13C270.529 167.757 269.922 167.244 269.409 166.59C268.336 167.99 266.912 168.69 265.139 168.69H258.909C255.362 168.69 252.772 167.99 251.139 166.59C249.552 165.144 248.759 162.694 248.759 159.24V157.84C248.759 150.607 252.166 146.99 258.979 146.99H267.659V143.49C267.659 142.044 267.216 140.924 266.329 140.13C265.442 139.337 264.136 138.94 262.409 138.94H251.559V133.69H261.709C265.769 133.69 268.756 134.577 270.669 136.35C272.629 138.124 273.609 140.97 273.609 144.89V161.69C273.609 162.39 273.866 162.927 274.379 163.3C274.939 163.627 275.849 163.79 277.109 163.79V168.69H273.259ZM264.439 163.44C265.839 163.44 266.726 163.114 267.099 162.46C267.472 161.807 267.659 160.967 267.659 159.94V152.24H258.909C257.696 152.24 256.692 152.637 255.899 153.43C255.106 154.224 254.709 155.227 254.709 156.44V159.94C254.709 161.154 254.989 162.04 255.549 162.6C256.109 163.16 256.996 163.44 258.209 163.44H264.439ZM289.012 168.69C287.425 168.69 286.025 168.13 284.812 167.01C283.645 165.89 283.062 164.117 283.062 161.69V124.94H272.772V119.69H289.012V161.34C289.012 162.087 289.198 162.624 289.572 162.95C289.945 163.277 290.575 163.44 291.462 163.44H300.772V168.69H289.012ZM312.814 168.69C311.228 168.69 309.828 168.13 308.614 167.01C307.448 165.89 306.864 164.117 306.864 161.69V124.94H296.574V119.69H312.814V161.34C312.814 162.087 313.001 162.624 313.374 162.95C313.748 163.277 314.378 163.44 315.264 163.44H324.574V168.69H312.814ZM333.957 168.69C329.85 168.69 326.84 167.827 324.927 166.1C323.014 164.327 322.057 161.457 322.057 157.49V144.89C322.057 140.877 322.92 138.007 324.647 136.28C326.374 134.554 329.244 133.69 333.257 133.69H336.547C339.86 133.69 342.357 134.624 344.037 136.49C345.764 138.31 346.627 140.994 346.627 144.54V153.64H328.007V158.89C328.007 160.337 328.45 161.457 329.337 162.25C330.224 163.044 331.53 163.44 333.257 163.44H344.387V168.69H333.957ZM340.817 143.14C340.817 141.927 340.42 140.924 339.627 140.13C338.834 139.337 337.83 138.94 336.617 138.94H332.557C330.877 138.94 329.687 139.337 328.987 140.13C328.334 140.877 328.007 141.997 328.007 143.49V148.39H340.817V143.14ZM351.88 175.34C353 175.34 353.84 175.13 354.4 174.71C354.96 174.29 355.38 173.567 355.66 172.54L356.64 168.69H355.24L343.69 133.69H350.13L358.88 163.02L366.51 133.69H372.6L361.75 172.47C361.143 174.85 360.396 176.624 359.51 177.79C358.623 178.957 357.62 179.704 356.5 180.03C355.426 180.404 354.026 180.59 352.3 180.59H348.94V175.34H351.88Z" fill="white"/>
</svg>
