<svg width="494" height="196" viewBox="0 0 494 196" fill="none" xmlns="http://www.w3.org/2000/svg">
<mask id="path-1-outside-1_376_344" maskUnits="userSpaceOnUse" x="97.7043" y="76" width="49" height="61" fill="black">
<rect fill="white" x="97.7043" y="76" width="49" height="61"/>
<path d="M132.224 130.85L142.024 116.36L144.124 117.06V135.26L140.344 134H99.5343V130.85L134.604 82.13H112.624L103.804 95.22L101.704 94.52V77.72L105.484 78.98H144.824V82.13L109.754 130.85H132.224Z"/>
</mask>
<path d="M132.224 130.85L142.024 116.36L144.124 117.06V135.26L140.344 134H99.5343V130.85L134.604 82.13H112.624L103.804 95.22L101.704 94.52V77.72L105.484 78.98H144.824V82.13L109.754 130.85H132.224Z" fill="white"/>
<path d="M132.224 130.85V131.85H132.755L133.053 131.41L132.224 130.85ZM142.024 116.36L142.341 115.411L141.621 115.171L141.196 115.8L142.024 116.36ZM144.124 117.06H145.124V116.339L144.441 116.111L144.124 117.06ZM144.124 135.26L143.808 136.209L145.124 136.647V135.26H144.124ZM140.344 134L140.661 133.051L140.507 133H140.344V134ZM99.5343 134H98.5343V135H99.5343V134ZM99.5343 130.85L98.7227 130.266L98.5343 130.528V130.85H99.5343ZM134.604 82.13L135.416 82.7142L136.556 81.13H134.604V82.13ZM112.624 82.13V81.13H112.092L111.795 81.5712L112.624 82.13ZM103.804 95.22L103.488 96.1687L104.209 96.409L104.634 95.7788L103.804 95.22ZM101.704 94.52H100.704V95.2408L101.388 95.4687L101.704 94.52ZM101.704 77.72L102.021 76.7713L100.704 76.3326V77.72H101.704ZM105.484 78.98L105.168 79.9287L105.322 79.98H105.484V78.98ZM144.824 78.98H145.824V77.98H144.824V78.98ZM144.824 82.13L145.636 82.7142L145.824 82.4525V82.13H144.824ZM109.754 130.85L108.943 130.266L107.802 131.85H109.754V130.85ZM133.053 131.41L142.853 116.92L141.196 115.8L131.396 130.29L133.053 131.41ZM141.708 117.309L143.808 118.009L144.441 116.111L142.341 115.411L141.708 117.309ZM143.124 117.06V135.26H145.124V117.06H143.124ZM144.441 134.311L140.661 133.051L140.028 134.949L143.808 136.209L144.441 134.311ZM140.344 133H99.5343V135H140.344V133ZM100.534 134V130.85H98.5343V134H100.534ZM100.346 131.434L135.416 82.7142L133.793 81.5458L98.7227 130.266L100.346 131.434ZM134.604 81.13H112.624V83.13H134.604V81.13ZM111.795 81.5712L102.975 94.6612L104.634 95.7788L113.454 82.6888L111.795 81.5712ZM104.121 94.2713L102.021 93.5713L101.388 95.4687L103.488 96.1687L104.121 94.2713ZM102.704 94.52V77.72H100.704V94.52H102.704ZM101.388 78.6687L105.168 79.9287L105.801 78.0313L102.021 76.7713L101.388 78.6687ZM105.484 79.98H144.824V77.98H105.484V79.98ZM143.824 78.98V82.13H145.824V78.98H143.824ZM144.013 81.5458L108.943 130.266L110.566 131.434L145.636 82.7142L144.013 81.5458ZM109.754 131.85H132.224V129.85H109.754V131.85Z" fill="white" mask="url(#path-1-outside-1_376_344)"/>
<path d="M100.91 29.0858L6.2042 181.5" stroke="white" stroke-width="5.57821"/>
<line x1="99.5207" y1="31.1665" x2="182.621" y2="59.2905" stroke="white" stroke-width="5.72093"/>
<line x1="179.524" y1="59.1489" x2="227.368" y2="2.78419" stroke="white" stroke-width="5.72093"/>
<path d="M224.487 4L312.731 10.6202" stroke="white" stroke-width="5.72093"/>
<line x1="311.072" y1="9.64876" x2="398.793" y2="101.184" stroke="white" stroke-width="5.72093"/>
<path d="M414.137 86.8848L395.456 101.304" stroke="white" stroke-width="5.72093"/>
<path d="M410.241 86.5703L482.704 184" stroke="white" stroke-width="5.72093"/>
<mask id="path-10-outside-2_376_344" maskUnits="userSpaceOnUse" x="143.704" y="81" width="174" height="46" fill="black">
<rect fill="white" x="143.704" y="81" width="174" height="46"/>
<path d="M154.204 90.5C153.304 90.5 152.554 90.15 151.954 89.45C151.388 88.75 151.104 87.8833 151.104 86.85C151.104 86.1167 151.304 85.4333 151.704 84.8C152.138 84.1667 152.671 83.6667 153.304 83.3C153.938 82.9 154.554 82.7 155.154 82.7C156.054 82.7 156.788 83.05 157.354 83.75C157.954 84.45 158.254 85.3167 158.254 86.35C158.254 87.0833 158.038 87.7667 157.604 88.4C157.204 89.0333 156.688 89.55 156.054 89.95C155.421 90.3167 154.804 90.5 154.204 90.5ZM167.704 90.5C166.804 90.5 166.054 90.15 165.454 89.45C164.888 88.75 164.604 87.8833 164.604 86.85C164.604 86.1167 164.804 85.4333 165.204 84.8C165.638 84.1667 166.171 83.6667 166.804 83.3C167.438 82.9 168.054 82.7 168.654 82.7C169.554 82.7 170.288 83.05 170.854 83.75C171.454 84.45 171.754 85.3167 171.754 86.35C171.754 87.0833 171.538 87.7667 171.104 88.4C170.704 89.0333 170.188 89.55 169.554 89.95C168.921 90.3167 168.304 90.5 167.704 90.5ZM175.904 125H166.404V119.8L160.054 125.1C159.354 125.367 158.438 125.5 157.304 125.5C155.038 125.5 153.238 124.817 151.904 123.45C150.571 122.05 149.904 120.167 149.904 117.8V105.85L145.454 103.25V101.7L154.004 97.5H155.904V115.3C155.904 117.133 156.188 118.417 156.754 119.15C157.321 119.883 158.338 120.25 159.804 120.25C160.838 120.25 161.854 120.067 162.854 119.7C163.854 119.3 165.038 118.533 166.404 117.4V105.85L161.954 103.25V101.7L170.504 97.5H172.404V121.25L176.904 123L175.904 125ZM197.965 98C199.065 98 200.032 98.3 200.865 98.9C201.699 99.5 202.349 100.333 202.815 101.4L199.515 105.55H197.615C197.482 104.717 197.232 104.133 196.865 103.8C196.532 103.433 196.065 103.25 195.465 103.25C194.732 103.25 193.949 103.45 193.115 103.85C192.315 104.217 191.399 104.933 190.365 106V120.9L197.365 123.05L196.365 125.05H179.915V123.5L184.365 120V105.85L179.915 103.25V101.7L188.465 97.5L190.015 103.65L195.215 98.35C195.915 98.0833 196.832 97.95 197.965 97.95V98ZM218.293 125H204.343V123.45L208.793 119.95V105.35L204.343 102.25V100.7L212.893 97.5H214.793V121.25L219.293 123L218.293 125ZM211.593 82.5C212.593 82.5 213.41 82.8667 214.043 83.6C214.71 84.3333 215.043 85.25 215.043 86.35C215.043 87.1167 214.81 87.85 214.343 88.55C213.876 89.2167 213.293 89.75 212.593 90.15C211.893 90.55 211.21 90.75 210.543 90.75C209.543 90.75 208.71 90.3833 208.043 89.65C207.41 88.9167 207.093 88 207.093 86.9C207.093 86.1333 207.326 85.4167 207.793 84.75C208.26 84.05 208.843 83.5 209.543 83.1C210.243 82.7 210.926 82.5 211.593 82.5ZM237.077 97.95C238.443 97.95 240.027 98.15 241.827 98.55C243.66 98.9167 244.977 99.3333 245.777 99.8V107.5H243.877C242.577 105.833 241.077 104.533 239.377 103.6C237.71 102.633 235.977 102.15 234.177 102.15C232.643 102.15 231.477 102.833 230.677 104.2C229.91 105.567 229.527 107.567 229.527 110.2C229.527 113.333 230.21 115.967 231.577 118.1C232.943 120.2 234.893 121.25 237.427 121.25C239.327 121.25 242.027 119.883 245.527 117.15L247.027 119.05L239.327 125.1C237.993 125.367 236.393 125.5 234.527 125.5C232.327 125.5 230.343 124.933 228.577 123.8C226.843 122.633 225.477 121.067 224.477 119.1C223.51 117.133 223.027 114.967 223.027 112.6C223.027 110.033 223.743 107.617 225.177 105.35C226.643 103.083 228.477 101.283 230.677 99.95C232.877 98.6167 235.01 97.95 237.077 97.95ZM267.241 97.95C269.441 97.95 271.407 98.5333 273.141 99.7C274.907 100.833 276.274 102.383 277.241 104.35C278.241 106.317 278.741 108.483 278.741 110.85C278.741 113.417 277.957 115.833 276.391 118.1C274.824 120.333 272.857 122.133 270.491 123.5C268.157 124.833 265.891 125.5 263.691 125.5C261.491 125.5 259.507 124.933 257.741 123.8C256.007 122.633 254.641 121.067 253.641 119.1C252.674 117.133 252.191 114.967 252.191 112.6C252.191 110.033 252.974 107.633 254.541 105.4C256.107 103.133 258.057 101.333 260.391 100C262.757 98.6333 265.041 97.95 267.241 97.95ZM264.341 102.15C260.574 102.15 258.691 104.833 258.691 110.2C258.691 113.367 259.374 116.017 260.741 118.15C262.107 120.25 264.057 121.3 266.591 121.3C270.357 121.3 272.241 118.6 272.241 113.2C272.241 110.067 271.557 107.45 270.191 105.35C268.824 103.217 266.874 102.15 264.341 102.15ZM314.436 125.05H304.936V108.2C304.936 106.367 304.652 105.083 304.086 104.35C303.519 103.617 302.502 103.25 301.036 103.25C299.936 103.25 298.836 103.45 297.736 103.85C296.669 104.25 295.402 105.017 293.936 106.15V121.3L298.436 123.05L297.436 125.05H283.486V123.5L287.936 120V105.85L283.486 103.25V101.7L292.036 97.5L293.686 104L300.786 98.35C301.486 98.0833 302.402 97.95 303.536 97.95C305.802 97.95 307.602 98.65 308.936 100.05C310.269 101.417 310.936 103.283 310.936 105.65V121.25L315.436 123.05L314.436 125.05Z"/>
</mask>
<path d="M154.204 90.5C153.304 90.5 152.554 90.15 151.954 89.45C151.388 88.75 151.104 87.8833 151.104 86.85C151.104 86.1167 151.304 85.4333 151.704 84.8C152.138 84.1667 152.671 83.6667 153.304 83.3C153.938 82.9 154.554 82.7 155.154 82.7C156.054 82.7 156.788 83.05 157.354 83.75C157.954 84.45 158.254 85.3167 158.254 86.35C158.254 87.0833 158.038 87.7667 157.604 88.4C157.204 89.0333 156.688 89.55 156.054 89.95C155.421 90.3167 154.804 90.5 154.204 90.5ZM167.704 90.5C166.804 90.5 166.054 90.15 165.454 89.45C164.888 88.75 164.604 87.8833 164.604 86.85C164.604 86.1167 164.804 85.4333 165.204 84.8C165.638 84.1667 166.171 83.6667 166.804 83.3C167.438 82.9 168.054 82.7 168.654 82.7C169.554 82.7 170.288 83.05 170.854 83.75C171.454 84.45 171.754 85.3167 171.754 86.35C171.754 87.0833 171.538 87.7667 171.104 88.4C170.704 89.0333 170.188 89.55 169.554 89.95C168.921 90.3167 168.304 90.5 167.704 90.5ZM175.904 125H166.404V119.8L160.054 125.1C159.354 125.367 158.438 125.5 157.304 125.5C155.038 125.5 153.238 124.817 151.904 123.45C150.571 122.05 149.904 120.167 149.904 117.8V105.85L145.454 103.25V101.7L154.004 97.5H155.904V115.3C155.904 117.133 156.188 118.417 156.754 119.15C157.321 119.883 158.338 120.25 159.804 120.25C160.838 120.25 161.854 120.067 162.854 119.7C163.854 119.3 165.038 118.533 166.404 117.4V105.85L161.954 103.25V101.7L170.504 97.5H172.404V121.25L176.904 123L175.904 125ZM197.965 98C199.065 98 200.032 98.3 200.865 98.9C201.699 99.5 202.349 100.333 202.815 101.4L199.515 105.55H197.615C197.482 104.717 197.232 104.133 196.865 103.8C196.532 103.433 196.065 103.25 195.465 103.25C194.732 103.25 193.949 103.45 193.115 103.85C192.315 104.217 191.399 104.933 190.365 106V120.9L197.365 123.05L196.365 125.05H179.915V123.5L184.365 120V105.85L179.915 103.25V101.7L188.465 97.5L190.015 103.65L195.215 98.35C195.915 98.0833 196.832 97.95 197.965 97.95V98ZM218.293 125H204.343V123.45L208.793 119.95V105.35L204.343 102.25V100.7L212.893 97.5H214.793V121.25L219.293 123L218.293 125ZM211.593 82.5C212.593 82.5 213.41 82.8667 214.043 83.6C214.71 84.3333 215.043 85.25 215.043 86.35C215.043 87.1167 214.81 87.85 214.343 88.55C213.876 89.2167 213.293 89.75 212.593 90.15C211.893 90.55 211.21 90.75 210.543 90.75C209.543 90.75 208.71 90.3833 208.043 89.65C207.41 88.9167 207.093 88 207.093 86.9C207.093 86.1333 207.326 85.4167 207.793 84.75C208.26 84.05 208.843 83.5 209.543 83.1C210.243 82.7 210.926 82.5 211.593 82.5ZM237.077 97.95C238.443 97.95 240.027 98.15 241.827 98.55C243.66 98.9167 244.977 99.3333 245.777 99.8V107.5H243.877C242.577 105.833 241.077 104.533 239.377 103.6C237.71 102.633 235.977 102.15 234.177 102.15C232.643 102.15 231.477 102.833 230.677 104.2C229.91 105.567 229.527 107.567 229.527 110.2C229.527 113.333 230.21 115.967 231.577 118.1C232.943 120.2 234.893 121.25 237.427 121.25C239.327 121.25 242.027 119.883 245.527 117.15L247.027 119.05L239.327 125.1C237.993 125.367 236.393 125.5 234.527 125.5C232.327 125.5 230.343 124.933 228.577 123.8C226.843 122.633 225.477 121.067 224.477 119.1C223.51 117.133 223.027 114.967 223.027 112.6C223.027 110.033 223.743 107.617 225.177 105.35C226.643 103.083 228.477 101.283 230.677 99.95C232.877 98.6167 235.01 97.95 237.077 97.95ZM267.241 97.95C269.441 97.95 271.407 98.5333 273.141 99.7C274.907 100.833 276.274 102.383 277.241 104.35C278.241 106.317 278.741 108.483 278.741 110.85C278.741 113.417 277.957 115.833 276.391 118.1C274.824 120.333 272.857 122.133 270.491 123.5C268.157 124.833 265.891 125.5 263.691 125.5C261.491 125.5 259.507 124.933 257.741 123.8C256.007 122.633 254.641 121.067 253.641 119.1C252.674 117.133 252.191 114.967 252.191 112.6C252.191 110.033 252.974 107.633 254.541 105.4C256.107 103.133 258.057 101.333 260.391 100C262.757 98.6333 265.041 97.95 267.241 97.95ZM264.341 102.15C260.574 102.15 258.691 104.833 258.691 110.2C258.691 113.367 259.374 116.017 260.741 118.15C262.107 120.25 264.057 121.3 266.591 121.3C270.357 121.3 272.241 118.6 272.241 113.2C272.241 110.067 271.557 107.45 270.191 105.35C268.824 103.217 266.874 102.15 264.341 102.15ZM314.436 125.05H304.936V108.2C304.936 106.367 304.652 105.083 304.086 104.35C303.519 103.617 302.502 103.25 301.036 103.25C299.936 103.25 298.836 103.45 297.736 103.85C296.669 104.25 295.402 105.017 293.936 106.15V121.3L298.436 123.05L297.436 125.05H283.486V123.5L287.936 120V105.85L283.486 103.25V101.7L292.036 97.5L293.686 104L300.786 98.35C301.486 98.0833 302.402 97.95 303.536 97.95C305.802 97.95 307.602 98.65 308.936 100.05C310.269 101.417 310.936 103.283 310.936 105.65V121.25L315.436 123.05L314.436 125.05Z" fill="white"/>
<path d="M151.954 89.45L151.177 90.0792L151.186 90.0901L151.195 90.1008L151.954 89.45ZM151.704 84.8L150.879 84.2353L150.869 84.2505L150.859 84.266L151.704 84.8ZM153.304 83.3L153.805 84.1654L153.822 84.1558L153.838 84.1455L153.304 83.3ZM157.354 83.75L156.577 84.3792L156.586 84.3901L156.595 84.4008L157.354 83.75ZM157.604 88.4L156.779 87.8353L156.769 87.8505L156.759 87.866L157.604 88.4ZM156.054 89.95L156.555 90.8154L156.572 90.8058L156.588 90.7955L156.054 89.95ZM165.454 89.45L164.677 90.0792L164.686 90.0901L164.695 90.1008L165.454 89.45ZM165.204 84.8L164.379 84.2353L164.369 84.2505L164.359 84.266L165.204 84.8ZM166.804 83.3L167.305 84.1654L167.322 84.1558L167.338 84.1455L166.804 83.3ZM170.854 83.75L170.077 84.3792L170.086 84.3901L170.095 84.4008L170.854 83.75ZM171.104 88.4L170.279 87.8353L170.269 87.8505L170.259 87.866L171.104 88.4ZM169.554 89.95L170.055 90.8154L170.072 90.8058L170.088 90.7955L169.554 89.95ZM175.904 125V126H176.522L176.799 125.447L175.904 125ZM166.404 125H165.404V126H166.404V125ZM166.404 119.8H167.404V117.663L165.764 119.032L166.404 119.8ZM160.054 125.1L160.41 126.034L160.567 125.975L160.695 125.868L160.054 125.1ZM151.904 123.45L151.18 124.14L151.189 124.148L151.904 123.45ZM149.904 105.85H150.904V105.276L150.409 104.987L149.904 105.85ZM145.454 103.25H144.454V103.824L144.95 104.113L145.454 103.25ZM145.454 101.7L145.013 100.802L144.454 101.077V101.7H145.454ZM154.004 97.5V96.5H153.772L153.563 96.6024L154.004 97.5ZM155.904 97.5H156.904V96.5H155.904V97.5ZM156.754 119.15L155.963 119.761L155.963 119.761L156.754 119.15ZM162.854 119.7L163.199 120.639L163.212 120.634L163.226 120.628L162.854 119.7ZM166.404 117.4L167.043 118.17L167.404 117.87V117.4H166.404ZM166.404 105.85H167.404V105.276L166.909 104.987L166.404 105.85ZM161.954 103.25H160.954V103.824L161.45 104.113L161.954 103.25ZM161.954 101.7L161.513 100.802L160.954 101.077V101.7H161.954ZM170.504 97.5V96.5H170.272L170.063 96.6024L170.504 97.5ZM172.404 97.5H173.404V96.5H172.404V97.5ZM172.404 121.25H171.404V121.934L172.042 122.182L172.404 121.25ZM176.904 123L177.799 123.447L178.29 122.466L177.267 122.068L176.904 123ZM154.204 89.5C153.604 89.5 153.129 89.2838 152.714 88.7992L151.195 90.1008C151.98 91.0162 153.004 91.5 154.204 91.5V89.5ZM152.732 88.8208C152.33 88.3246 152.104 87.6898 152.104 86.85H150.104C150.104 88.0769 150.445 89.1754 151.177 90.0792L152.732 88.8208ZM152.104 86.85C152.104 86.3099 152.248 85.8111 152.55 85.334L150.859 84.266C150.36 85.0555 150.104 85.9234 150.104 86.85H152.104ZM152.53 85.3647C152.883 84.8484 153.308 84.4537 153.805 84.1654L152.803 82.4346C152.035 82.8797 151.392 83.4849 150.879 84.2353L152.53 85.3647ZM153.838 84.1455C154.351 83.8214 154.785 83.7 155.154 83.7V81.7C154.323 81.7 153.524 81.9786 152.77 82.4545L153.838 84.1455ZM155.154 83.7C155.752 83.7 156.2 83.9135 156.577 84.3792L158.132 83.1208C157.375 82.1864 156.356 81.7 155.154 81.7V83.7ZM156.595 84.4008C157.021 84.8975 157.254 85.5246 157.254 86.35H159.254C159.254 85.1088 158.888 84.0025 158.114 83.0992L156.595 84.4008ZM157.254 86.35C157.254 86.8721 157.104 87.3601 156.779 87.8353L158.43 88.9647C158.971 88.1732 159.254 87.2945 159.254 86.35H157.254ZM156.759 87.866C156.438 88.3736 156.028 88.7839 155.52 89.1045L156.588 90.7955C157.347 90.3161 157.97 89.693 158.45 88.934L156.759 87.866ZM155.553 89.0846C155.039 89.3824 154.594 89.5 154.204 89.5V91.5C155.015 91.5 155.803 91.251 156.555 90.8154L155.553 89.0846ZM167.704 89.5C167.104 89.5 166.629 89.2838 166.214 88.7992L164.695 90.1008C165.48 91.0162 166.504 91.5 167.704 91.5V89.5ZM166.232 88.8208C165.83 88.3246 165.604 87.6898 165.604 86.85H163.604C163.604 88.0769 163.945 89.1754 164.677 90.0792L166.232 88.8208ZM165.604 86.85C165.604 86.3099 165.748 85.8111 166.05 85.334L164.359 84.266C163.86 85.0555 163.604 85.9234 163.604 86.85H165.604ZM166.03 85.3647C166.383 84.8484 166.808 84.4537 167.305 84.1654L166.303 82.4346C165.535 82.8797 164.892 83.4849 164.379 84.2353L166.03 85.3647ZM167.338 84.1455C167.851 83.8214 168.285 83.7 168.654 83.7V81.7C167.823 81.7 167.024 81.9786 166.27 82.4545L167.338 84.1455ZM168.654 83.7C169.252 83.7 169.7 83.9135 170.077 84.3792L171.632 83.1208C170.875 82.1864 169.856 81.7 168.654 81.7V83.7ZM170.095 84.4008C170.521 84.8975 170.754 85.5246 170.754 86.35H172.754C172.754 85.1088 172.388 84.0025 171.614 83.0992L170.095 84.4008ZM170.754 86.35C170.754 86.8721 170.604 87.3601 170.279 87.8353L171.93 88.9647C172.471 88.1732 172.754 87.2945 172.754 86.35H170.754ZM170.259 87.866C169.938 88.3736 169.528 88.7839 169.02 89.1045L170.088 90.7955C170.847 90.3161 171.47 89.693 171.95 88.934L170.259 87.866ZM169.053 89.0846C168.539 89.3824 168.094 89.5 167.704 89.5V91.5C168.515 91.5 169.303 91.251 170.055 90.8154L169.053 89.0846ZM175.904 124H166.404V126H175.904V124ZM167.404 125V119.8H165.404V125H167.404ZM165.764 119.032L159.414 124.332L160.695 125.868L167.045 120.568L165.764 119.032ZM159.698 124.166C159.155 124.373 158.372 124.5 157.304 124.5V126.5C158.503 126.5 159.554 126.361 160.41 126.034L159.698 124.166ZM157.304 124.5C155.253 124.5 153.73 123.89 152.62 122.752L151.189 124.148C152.745 125.744 154.823 126.5 157.304 126.5V124.5ZM152.628 122.76C151.51 121.586 150.904 119.971 150.904 117.8H148.904C148.904 120.363 149.632 122.514 151.18 124.14L152.628 122.76ZM150.904 117.8V105.85H148.904V117.8H150.904ZM150.409 104.987L145.959 102.387L144.95 104.113L149.4 106.713L150.409 104.987ZM146.454 103.25V101.7H144.454V103.25H146.454ZM145.895 102.598L154.445 98.3976L153.563 96.6024L145.013 100.802L145.895 102.598ZM154.004 98.5H155.904V96.5H154.004V98.5ZM154.904 97.5V115.3H156.904V97.5H154.904ZM154.904 115.3C154.904 117.172 155.181 118.749 155.963 119.761L157.546 118.539C157.195 118.084 156.904 117.095 156.904 115.3H154.904ZM155.963 119.761C156.808 120.855 158.21 121.25 159.804 121.25V119.25C158.465 119.25 157.834 118.912 157.546 118.539L155.963 119.761ZM159.804 121.25C160.959 121.25 162.092 121.045 163.199 120.639L162.51 118.761C161.617 119.089 160.717 119.25 159.804 119.25V121.25ZM163.226 120.628C164.365 120.173 165.641 119.332 167.043 118.17L165.766 116.63C164.435 117.734 163.344 118.427 162.483 118.772L163.226 120.628ZM167.404 117.4V105.85H165.404V117.4H167.404ZM166.909 104.987L162.459 102.387L161.45 104.113L165.9 106.713L166.909 104.987ZM162.954 103.25V101.7H160.954V103.25H162.954ZM162.395 102.598L170.945 98.3976L170.063 96.6024L161.513 100.802L162.395 102.598ZM170.504 98.5H172.404V96.5H170.504V98.5ZM171.404 97.5V121.25H173.404V97.5H171.404ZM172.042 122.182L176.542 123.932L177.267 122.068L172.767 120.318L172.042 122.182ZM176.01 122.553L175.01 124.553L176.799 125.447L177.799 123.447L176.01 122.553ZM197.965 98H196.965V99H197.965V98ZM200.865 98.9L201.45 98.0885L201.45 98.0885L200.865 98.9ZM202.815 101.4L203.598 102.022L203.973 101.551L203.731 100.999L202.815 101.4ZM199.515 105.55V106.55H199.998L200.298 106.172L199.515 105.55ZM197.615 105.55L196.628 105.708L196.763 106.55H197.615V105.55ZM196.865 103.8L196.125 104.473L196.157 104.508L196.193 104.54L196.865 103.8ZM193.115 103.85L193.532 104.759L193.54 104.755L193.548 104.752L193.115 103.85ZM190.365 106L189.647 105.304L189.365 105.595V106H190.365ZM190.365 120.9H189.365V121.639L190.072 121.856L190.365 120.9ZM197.365 123.05L198.26 123.497L198.788 122.441L197.659 122.094L197.365 123.05ZM196.365 125.05V126.05H196.983L197.26 125.497L196.365 125.05ZM179.915 125.05H178.915V126.05H179.915V125.05ZM179.915 123.5L179.297 122.714L178.915 123.014V123.5H179.915ZM184.365 120L184.983 120.786L185.365 120.486V120H184.365ZM184.365 105.85H185.365V105.276L184.87 104.987L184.365 105.85ZM179.915 103.25H178.915V103.824L179.411 104.113L179.915 103.25ZM179.915 101.7L179.474 100.802L178.915 101.077V101.7H179.915ZM188.465 97.5L189.435 97.2556L189.133 96.0578L188.024 96.6024L188.465 97.5ZM190.015 103.65L189.046 103.894L189.481 105.622L190.729 104.35L190.015 103.65ZM195.215 98.35L194.859 97.4155L194.655 97.4934L194.501 97.6497L195.215 98.35ZM197.965 97.95H198.965V96.95H197.965V97.95ZM197.965 99C198.871 99 199.63 99.243 200.281 99.7115L201.45 98.0885C200.434 97.357 199.259 97 197.965 97V99ZM200.281 99.7115C200.95 100.193 201.494 100.876 201.899 101.801L203.731 100.999C203.203 99.7908 202.447 98.8066 201.45 98.0885L200.281 99.7115ZM202.033 100.778L198.733 104.928L200.298 106.172L203.598 102.022L202.033 100.778ZM199.515 104.55H197.615V106.55H199.515V104.55ZM198.603 105.392C198.456 104.478 198.155 103.621 197.538 103.06L196.193 104.54C196.309 104.646 196.507 104.956 196.628 105.708L198.603 105.392ZM197.605 103.127C197.043 102.509 196.283 102.25 195.465 102.25V104.25C195.848 104.25 196.021 104.358 196.125 104.473L197.605 103.127ZM195.465 102.25C194.548 102.25 193.617 102.5 192.683 102.948L193.548 104.752C194.28 104.4 194.916 104.25 195.465 104.25V102.25ZM192.699 102.941C191.734 103.383 190.716 104.201 189.647 105.304L191.084 106.696C192.082 105.666 192.896 105.05 193.532 104.759L192.699 102.941ZM189.365 106V120.9H191.365V106H189.365ZM190.072 121.856L197.072 124.006L197.659 122.094L190.659 119.944L190.072 121.856ZM196.471 122.603L195.471 124.603L197.26 125.497L198.26 123.497L196.471 122.603ZM196.365 124.05H179.915V126.05H196.365V124.05ZM180.915 125.05V123.5H178.915V125.05H180.915ZM180.533 124.286L184.983 120.786L183.747 119.214L179.297 122.714L180.533 124.286ZM185.365 120V105.85H183.365V120H185.365ZM184.87 104.987L180.42 102.387L179.411 104.113L183.861 106.713L184.87 104.987ZM180.915 103.25V101.7H178.915V103.25H180.915ZM180.356 102.598L188.906 98.3976L188.024 96.6024L179.474 100.802L180.356 102.598ZM187.496 97.7444L189.046 103.894L190.985 103.406L189.435 97.2556L187.496 97.7444ZM190.729 104.35L195.929 99.0503L194.501 97.6497L189.301 102.95L190.729 104.35ZM195.571 99.2845C196.115 99.0774 196.898 98.95 197.965 98.95V96.95C196.766 96.95 195.716 97.0893 194.859 97.4155L195.571 99.2845ZM196.965 97.95V98H198.965V97.95H196.965ZM218.293 125V126H218.911L219.187 125.447L218.293 125ZM204.343 125H203.343V126H204.343V125ZM204.343 123.45L203.725 122.664L203.343 122.964V123.45H204.343ZM208.793 119.95L209.411 120.736L209.793 120.436V119.95H208.793ZM208.793 105.35H209.793V104.828L209.365 104.529L208.793 105.35ZM204.343 102.25H203.343V102.772L203.771 103.071L204.343 102.25ZM204.343 100.7L203.992 99.7634L203.343 100.007V100.7H204.343ZM212.893 97.5V96.5H212.712L212.542 96.5634L212.893 97.5ZM214.793 97.5H215.793V96.5H214.793V97.5ZM214.793 121.25H213.793V121.934L214.431 122.182L214.793 121.25ZM219.293 123L220.187 123.447L220.678 122.466L219.655 122.068L219.293 123ZM214.043 83.6L213.286 84.2536L213.295 84.2633L213.303 84.2727L214.043 83.6ZM214.343 88.55L215.162 89.1235L215.169 89.1142L215.175 89.1047L214.343 88.55ZM212.593 90.15L213.089 91.0182L213.089 91.0182L212.593 90.15ZM208.043 89.65L207.286 90.3036L207.295 90.3133L207.303 90.3227L208.043 89.65ZM207.793 84.75L208.612 85.3235L208.619 85.3142L208.625 85.3047L207.793 84.75ZM209.543 83.1L209.047 82.2318L209.047 82.2318L209.543 83.1ZM218.293 124H204.343V126H218.293V124ZM205.343 125V123.45H203.343V125H205.343ZM204.961 124.236L209.411 120.736L208.175 119.164L203.725 122.664L204.961 124.236ZM209.793 119.95V105.35H207.793V119.95H209.793ZM209.365 104.529L204.915 101.429L203.771 103.071L208.221 106.171L209.365 104.529ZM205.343 102.25V100.7H203.343V102.25H205.343ZM204.694 101.637L213.244 98.4366L212.542 96.5634L203.992 99.7634L204.694 101.637ZM212.893 98.5H214.793V96.5H212.893V98.5ZM213.793 97.5V121.25H215.793V97.5H213.793ZM214.431 122.182L218.931 123.932L219.655 122.068L215.155 120.318L214.431 122.182ZM218.399 122.553L217.399 124.553L219.187 125.447L220.187 123.447L218.399 122.553ZM211.593 83.5C212.313 83.5 212.85 83.7482 213.286 84.2536L214.8 82.9464C213.97 81.9852 212.873 81.5 211.593 81.5V83.5ZM213.303 84.2727C213.784 84.8012 214.043 85.4692 214.043 86.35H216.043C216.043 85.0308 215.636 83.8655 214.783 82.9273L213.303 84.2727ZM214.043 86.35C214.043 86.9001 213.879 87.4429 213.511 87.9953L215.175 89.1047C215.74 88.2571 216.043 87.3332 216.043 86.35H214.043ZM213.524 87.9765C213.141 88.5235 212.668 88.9557 212.097 89.2818L213.089 91.0182C213.919 90.5443 214.612 89.9099 215.162 89.1235L213.524 87.9765ZM212.097 89.2818C211.516 89.6134 211.003 89.75 210.543 89.75V91.75C211.417 91.75 212.27 91.4865 213.089 91.0182L212.097 89.2818ZM210.543 89.75C209.822 89.75 209.258 89.5 208.783 88.9773L207.303 90.3227C208.161 91.2666 209.264 91.75 210.543 91.75V89.75ZM208.8 88.9964C208.345 88.4692 208.093 87.7946 208.093 86.9H206.093C206.093 88.2054 206.475 89.3641 207.286 90.3036L208.8 88.9964ZM208.093 86.9C208.093 86.3514 208.256 85.833 208.612 85.3235L206.974 84.1765C206.397 85.0004 206.093 85.9152 206.093 86.9H208.093ZM208.625 85.3047C209.009 84.7281 209.48 84.2878 210.039 83.9682L209.047 82.2318C208.206 82.7122 207.51 83.3719 206.961 84.1953L208.625 85.3047ZM210.039 83.9682C210.62 83.6366 211.133 83.5 211.593 83.5V81.5C210.719 81.5 209.866 81.7634 209.047 82.2318L210.039 83.9682ZM241.827 98.55L241.61 99.5262L241.62 99.5285L241.63 99.5306L241.827 98.55ZM245.777 99.8H246.777V99.2256L246.28 98.9362L245.777 99.8ZM245.777 107.5V108.5H246.777V107.5H245.777ZM243.877 107.5L243.088 108.115L243.388 108.5H243.877V107.5ZM239.377 103.6L238.875 104.465L238.885 104.471L238.895 104.477L239.377 103.6ZM230.677 104.2L229.814 103.695L229.809 103.703L229.804 103.711L230.677 104.2ZM231.577 118.1L230.735 118.639L230.738 118.645L231.577 118.1ZM245.527 117.15L246.311 116.53L245.695 115.75L244.911 116.362L245.527 117.15ZM247.027 119.05L247.644 119.836L248.433 119.217L247.811 118.43L247.027 119.05ZM239.327 125.1L239.523 126.081L239.757 126.034L239.944 125.886L239.327 125.1ZM228.577 123.8L228.018 124.63L228.027 124.636L228.037 124.642L228.577 123.8ZM224.477 119.1L223.579 119.541L223.585 119.553L224.477 119.1ZM225.177 105.35L224.337 104.807L224.331 104.816L225.177 105.35ZM230.677 99.95L230.158 99.0948L230.158 99.0948L230.677 99.95ZM237.077 98.95C238.35 98.95 239.858 99.1369 241.61 99.5262L242.044 97.5738C240.195 97.1631 238.536 96.95 237.077 96.95V98.95ZM241.63 99.5306C243.443 99.893 244.623 100.285 245.273 100.664L246.28 98.9362C245.33 98.3821 243.877 97.9403 242.023 97.5694L241.63 99.5306ZM244.777 99.8V107.5H246.777V99.8H244.777ZM245.777 106.5H243.877V108.5H245.777V106.5ZM244.665 106.885C243.289 105.121 241.687 103.728 239.858 102.723L238.895 104.477C240.466 105.339 241.864 106.546 243.088 108.115L244.665 106.885ZM239.878 102.735C238.07 101.686 236.165 101.15 234.177 101.15V103.15C235.788 103.15 237.35 103.58 238.875 104.465L239.878 102.735ZM234.177 101.15C232.274 101.15 230.786 102.034 229.814 103.695L231.54 104.705C232.167 103.633 233.013 103.15 234.177 103.15V101.15ZM229.804 103.711C228.915 105.296 228.527 107.498 228.527 110.2H230.527C230.527 107.635 230.905 105.837 231.549 104.689L229.804 103.711ZM228.527 110.2C228.527 113.479 229.243 116.311 230.735 118.639L232.419 117.561C231.177 115.623 230.527 113.187 230.527 110.2H228.527ZM230.738 118.645C232.292 121.033 234.56 122.25 237.427 122.25V120.25C235.227 120.25 233.594 119.367 232.415 117.555L230.738 118.645ZM237.427 122.25C238.6 122.25 239.912 121.834 241.328 121.117C242.756 120.394 244.362 119.328 246.142 117.938L244.911 116.362C243.191 117.705 241.697 118.689 240.425 119.333C239.141 119.983 238.154 120.25 237.427 120.25V122.25ZM244.742 117.77L246.242 119.67L247.811 118.43L246.311 116.53L244.742 117.77ZM246.409 118.264L238.709 124.314L239.944 125.886L247.644 119.836L246.409 118.264ZM239.13 124.119C237.881 124.369 236.35 124.5 234.527 124.5V126.5C236.437 126.5 238.106 126.364 239.523 126.081L239.13 124.119ZM234.527 124.5C232.508 124.5 230.714 123.983 229.117 122.958L228.037 124.642C229.972 125.883 232.145 126.5 234.527 126.5V124.5ZM229.135 122.97C227.551 121.904 226.295 120.47 225.368 118.647L223.585 119.553C224.658 121.663 226.136 123.363 228.018 124.63L229.135 122.97ZM225.374 118.659C224.48 116.84 224.027 114.826 224.027 112.6H222.027C222.027 115.107 222.54 117.426 223.579 119.541L225.374 118.659ZM224.027 112.6C224.027 110.231 224.685 107.999 226.022 105.884L224.331 104.816C222.802 107.235 222.027 109.835 222.027 112.6H224.027ZM226.016 105.893C227.405 103.747 229.131 102.056 231.195 100.805L230.158 99.0948C227.823 100.51 225.882 102.42 224.337 104.807L226.016 105.893ZM231.195 100.805C233.277 99.5435 235.233 98.95 237.077 98.95V96.95C234.787 96.95 232.477 97.6898 230.158 99.0948L231.195 100.805ZM273.141 99.7L272.582 100.53L272.591 100.536L272.601 100.542L273.141 99.7ZM277.241 104.35L276.343 104.791L276.349 104.803L277.241 104.35ZM276.391 118.1L277.209 118.674L277.213 118.669L276.391 118.1ZM270.491 123.5L270.987 124.368L270.991 124.366L270.491 123.5ZM257.741 123.8L257.182 124.63L257.191 124.636L257.201 124.642L257.741 123.8ZM253.641 119.1L252.743 119.541L252.749 119.553L253.641 119.1ZM254.541 105.4L255.359 105.974L255.363 105.969L254.541 105.4ZM260.391 100L260.887 100.868L260.891 100.866L260.391 100ZM260.741 118.15L259.899 118.689L259.903 118.695L260.741 118.15ZM270.191 105.35L269.349 105.889L269.353 105.895L270.191 105.35ZM267.241 98.95C269.253 98.95 271.023 99.48 272.582 100.53L273.699 98.8704C271.792 97.5866 269.628 96.95 267.241 96.95V98.95ZM272.601 100.542C274.207 101.572 275.453 102.981 276.343 104.791L278.138 103.909C277.095 101.786 275.608 100.095 273.681 98.8583L272.601 100.542ZM276.349 104.803C277.273 106.619 277.741 108.629 277.741 110.85H279.741C279.741 108.338 279.209 106.014 278.132 103.897L276.349 104.803ZM277.741 110.85C277.741 113.198 277.028 115.419 275.568 117.531L277.213 118.669C278.887 116.248 279.741 113.635 279.741 110.85H277.741ZM275.572 117.526C274.089 119.64 272.231 121.34 269.991 122.634L270.991 124.366C273.483 122.927 275.559 121.027 277.209 118.674L275.572 117.526ZM269.995 122.632C267.779 123.898 265.682 124.5 263.691 124.5V126.5C266.099 126.5 268.536 125.769 270.987 124.368L269.995 122.632ZM263.691 124.5C261.672 124.5 259.878 123.983 258.281 122.958L257.201 124.642C259.136 125.883 261.309 126.5 263.691 126.5V124.5ZM258.299 122.97C256.715 121.904 255.459 120.47 254.532 118.647L252.749 119.553C253.822 121.663 255.3 123.363 257.182 124.63L258.299 122.97ZM254.538 118.659C253.644 116.84 253.191 114.826 253.191 112.6H251.191C251.191 115.107 251.704 117.426 252.743 119.541L254.538 118.659ZM253.191 112.6C253.191 110.252 253.903 108.051 255.359 105.974L253.722 104.826C252.045 107.216 251.191 109.815 251.191 112.6H253.191ZM255.363 105.969C256.847 103.822 258.687 102.125 260.887 100.868L259.895 99.1318C257.428 100.541 255.368 102.445 253.718 104.831L255.363 105.969ZM260.891 100.866C263.142 99.5661 265.254 98.95 267.241 98.95V96.95C264.827 96.95 262.373 97.7006 259.891 99.134L260.891 100.866ZM264.341 101.15C262.187 101.15 260.444 101.937 259.285 103.588C258.171 105.175 257.691 107.43 257.691 110.2H259.691C259.691 107.603 260.152 105.834 260.922 104.737C261.646 103.705 262.727 103.15 264.341 103.15V101.15ZM257.691 110.2C257.691 113.51 258.406 116.359 259.899 118.689L261.583 117.611C260.342 115.674 259.691 113.223 259.691 110.2H257.691ZM259.903 118.695C261.456 121.083 263.724 122.3 266.591 122.3V120.3C264.391 120.3 262.758 119.417 261.579 117.605L259.903 118.695ZM266.591 122.3C268.746 122.3 270.491 121.507 271.648 119.847C272.76 118.253 273.241 115.986 273.241 113.2H271.241C271.241 115.814 270.779 117.597 270.008 118.703C269.283 119.743 268.202 120.3 266.591 120.3V122.3ZM273.241 113.2C273.241 109.921 272.525 107.103 271.029 104.805L269.353 105.895C270.59 107.797 271.241 110.212 271.241 113.2H273.241ZM271.033 104.811C269.482 102.39 267.215 101.15 264.341 101.15V103.15C266.533 103.15 268.166 104.043 269.349 105.889L271.033 104.811ZM314.436 125.05V126.05H315.054L315.33 125.497L314.436 125.05ZM304.936 125.05H303.936V126.05H304.936V125.05ZM304.086 104.35L303.294 104.961L303.294 104.961L304.086 104.35ZM297.736 103.85L297.394 102.91L297.384 102.914L297.736 103.85ZM293.936 106.15L293.324 105.359L292.936 105.659V106.15H293.936ZM293.936 121.3H292.936V121.984L293.573 122.232L293.936 121.3ZM298.436 123.05L299.33 123.497L299.821 122.516L298.798 122.118L298.436 123.05ZM297.436 125.05V126.05H298.054L298.33 125.497L297.436 125.05ZM283.486 125.05H282.486V126.05H283.486V125.05ZM283.486 123.5L282.867 122.714L282.486 123.014V123.5H283.486ZM287.936 120L288.554 120.786L288.936 120.486V120H287.936ZM287.936 105.85H288.936V105.276L288.44 104.987L287.936 105.85ZM283.486 103.25H282.486V103.824L282.981 104.113L283.486 103.25ZM283.486 101.7L283.045 100.802L282.486 101.077V101.7H283.486ZM292.036 97.5L293.005 97.254L292.701 96.0588L291.595 96.6024L292.036 97.5ZM293.686 104L292.716 104.246L293.097 105.746L294.308 104.782L293.686 104ZM300.786 98.35L300.43 97.4155L300.284 97.4708L300.163 97.5675L300.786 98.35ZM308.936 100.05L308.211 100.74L308.22 100.748L308.936 100.05ZM310.936 121.25H309.936V121.927L310.564 122.178L310.936 121.25ZM315.436 123.05L316.33 123.497L316.816 122.525L315.807 122.122L315.436 123.05ZM314.436 124.05H304.936V126.05H314.436V124.05ZM305.936 125.05V108.2H303.936V125.05H305.936ZM305.936 108.2C305.936 106.328 305.659 104.751 304.877 103.739L303.294 104.961C303.645 105.416 303.936 106.405 303.936 108.2H305.936ZM304.877 103.739C304.032 102.645 302.63 102.25 301.036 102.25V104.25C302.374 104.25 303.006 104.588 303.294 104.961L304.877 103.739ZM301.036 102.25C299.812 102.25 298.596 102.473 297.394 102.91L298.077 104.79C299.075 104.427 300.059 104.25 301.036 104.25V102.25ZM297.384 102.914C296.184 103.364 294.827 104.197 293.324 105.359L294.547 106.941C295.978 105.836 297.154 105.136 298.087 104.786L297.384 102.914ZM292.936 106.15V121.3H294.936V106.15H292.936ZM293.573 122.232L298.073 123.982L298.798 122.118L294.298 120.368L293.573 122.232ZM297.541 122.603L296.541 124.603L298.33 125.497L299.33 123.497L297.541 122.603ZM297.436 124.05H283.486V126.05H297.436V124.05ZM284.486 125.05V123.5H282.486V125.05H284.486ZM284.104 124.286L288.554 120.786L287.317 119.214L282.867 122.714L284.104 124.286ZM288.936 120V105.85H286.936V120H288.936ZM288.44 104.987L283.99 102.387L282.981 104.113L287.431 106.713L288.44 104.987ZM284.486 103.25V101.7H282.486V103.25H284.486ZM283.926 102.598L292.477 98.3976L291.595 96.6024L283.045 100.802L283.926 102.598ZM291.066 97.746L292.716 104.246L294.655 103.754L293.005 97.254L291.066 97.746ZM294.308 104.782L301.408 99.1325L300.163 97.5675L293.063 103.218L294.308 104.782ZM301.142 99.2845C301.685 99.0774 302.468 98.95 303.536 98.95V96.95C302.337 96.95 301.286 97.0893 300.43 97.4155L301.142 99.2845ZM303.536 98.95C305.58 98.95 307.1 99.5721 308.211 100.74L309.66 99.3603C308.105 97.7279 306.025 96.95 303.536 96.95V98.95ZM308.22 100.748C309.33 101.886 309.936 103.478 309.936 105.65H311.936C311.936 103.088 311.208 100.948 309.651 99.3517L308.22 100.748ZM309.936 105.65V121.25H311.936V105.65H309.936ZM310.564 122.178L315.064 123.978L315.807 122.122L311.307 120.322L310.564 122.178ZM314.541 122.603L313.541 124.603L315.33 125.497L316.33 123.497L314.541 122.603Z" fill="white" mask="url(#path-10-outside-2_376_344)"/>
<path d="M210.184 143H216.624L224.814 173.17L232.794 143H239.024L228.944 178H220.334L210.184 143ZM258.697 178C258.09 178 257.414 177.813 256.667 177.44C255.967 177.067 255.36 176.553 254.847 175.9C253.774 177.3 252.35 178 250.577 178H244.347C240.8 178 238.21 177.3 236.577 175.9C234.99 174.453 234.197 172.003 234.197 168.55V167.15C234.197 159.917 237.604 156.3 244.417 156.3H253.097V152.8C253.097 151.353 252.654 150.233 251.767 149.44C250.88 148.647 249.574 148.25 247.847 148.25H236.997V143H247.147C251.207 143 254.194 143.887 256.107 145.66C258.067 147.433 259.047 150.28 259.047 154.2V171C259.047 171.7 259.304 172.237 259.817 172.61C260.377 172.937 261.287 173.1 262.547 173.1V178H258.697ZM249.877 172.75C251.277 172.75 252.164 172.423 252.537 171.77C252.91 171.117 253.097 170.277 253.097 169.25V161.55H244.347C243.134 161.55 242.13 161.947 241.337 162.74C240.544 163.533 240.147 164.537 240.147 165.75V169.25C240.147 170.463 240.427 171.35 240.987 171.91C241.547 172.47 242.434 172.75 243.647 172.75H249.877ZM274.45 178C272.863 178 271.463 177.44 270.25 176.32C269.083 175.2 268.5 173.427 268.5 171V134.25H258.21V129H274.45V170.65C274.45 171.397 274.636 171.933 275.01 172.26C275.383 172.587 276.013 172.75 276.9 172.75H286.21V178H274.45ZM298.253 178C296.666 178 295.266 177.44 294.053 176.32C292.886 175.2 292.303 173.427 292.303 171V134.25H282.013V129H298.253V170.65C298.253 171.397 298.439 171.933 298.813 172.26C299.186 172.587 299.816 172.75 300.703 172.75H310.013V178H298.253ZM319.395 178C315.289 178 312.279 177.137 310.365 175.41C308.452 173.637 307.495 170.767 307.495 166.8V154.2C307.495 150.187 308.359 147.317 310.085 145.59C311.812 143.863 314.682 143 318.695 143H321.985C325.299 143 327.795 143.933 329.475 145.8C331.202 147.62 332.065 150.303 332.065 153.85V162.95H313.445V168.2C313.445 169.647 313.889 170.767 314.775 171.56C315.662 172.353 316.969 172.75 318.695 172.75H329.825V178H319.395ZM326.255 152.45C326.255 151.237 325.859 150.233 325.065 149.44C324.272 148.647 323.269 148.25 322.055 148.25H317.995C316.315 148.25 315.125 148.647 314.425 149.44C313.772 150.187 313.445 151.307 313.445 152.8V157.7H326.255V152.45ZM337.318 184.65C338.438 184.65 339.278 184.44 339.838 184.02C340.398 183.6 340.818 182.877 341.098 181.85L342.078 178H340.678L329.128 143H335.568L344.318 172.33L351.948 143H358.038L347.188 181.78C346.581 184.16 345.835 185.933 344.948 187.1C344.061 188.267 343.058 189.013 341.938 189.34C340.865 189.713 339.465 189.9 337.738 189.9H334.378V184.65H337.318Z" fill="white"/>
</svg>
